<svg xmlns="http://www.w3.org/2000/svg" viewBox="0 0 130.19 130.4"><defs><linearGradient id="a" x1="93.34" x2="12.45" y1="123.63" y2="27.23" gradientUnits="userSpaceOnUse"><stop offset="0" stop-color="#6078ea"/><stop offset="1" stop-color="#17ead9"/></linearGradient></defs><path fill="url(#a)" d="M89.17 126.43a7.52 7.52 0 0 1-10.14 3.1L3.98 89.63a7.51 7.51 0 0 1-3.1-10.14l.03-.04c0-.03.02-.05.04-.07l.17-.35 39.9-75.05a7.5 7.5 0 0 1 13.25 7.04L17.64 79.9l68.43 36.39a7.52 7.52 0 0 1 3.1 10.14Z"/><path fill="#4f46e5" d="M130.19 47.42c0 1.19-.28 2.39-.87 3.5L103.5 99.49a7.54 7.54 0 0 1-10.15 3.1 7.53 7.53 0 0 1-3.1-10.15l22.3-41.94-41.94-22.3a7.52 7.52 0 0 1-3.1-10.14 7.53 7.53 0 0 1 10.15-3.1l48.56 25.82a7.52 7.52 0 0 1 3.97 6.64Z"/></svg>