<?xml version="1.0" encoding="UTF-8"?>
<svg xmlns="http://www.w3.org/2000/svg" width="167" height="40.001" viewBox="0 0 167 40.001">
  <path id="Combined_Shape" data-name="Combined Shape" d="M67.212,39.015A13.338,13.338,0,0,1,62.47,36a14.113,14.113,0,0,1-3.258-5.128A20.858,20.858,0,0,1,58,23.543a22.316,22.316,0,0,1,.8-6.157,13.855,13.855,0,0,1,2.487-4.929C63.681,9.5,67.262,8,71.924,8a12.717,12.717,0,0,1,5.87,1.233,8.36,8.36,0,0,1,3.347,3.148C82.807,15.138,83,18.68,83,21.105v4.267H63.063a10.865,10.865,0,0,0,3.323,7.809,10.546,10.546,0,0,0,7.12,2.552A21.622,21.622,0,0,0,82.05,33.6v4.267A21.307,21.307,0,0,1,72.873,40,16.084,16.084,0,0,1,67.212,39.015ZM65.951,14.743a12.383,12.383,0,0,0-2.888,6.362h15.19a12.313,12.313,0,0,0-1.265-6.248,5.02,5.02,0,0,0-1.939-1.9,6.548,6.548,0,0,0-3.126-.695A7.852,7.852,0,0,0,65.951,14.743ZM39.212,39.015A13.33,13.33,0,0,1,34.47,36a14.115,14.115,0,0,1-3.259-5.128A20.879,20.879,0,0,1,30,23.543a22.316,22.316,0,0,1,.8-6.157,13.841,13.841,0,0,1,2.487-4.929C35.681,9.5,39.262,8,43.924,8a12.719,12.719,0,0,1,5.87,1.233,8.36,8.36,0,0,1,3.347,3.148C54.807,15.138,55,18.68,55,21.105v4.267H35.063a10.865,10.865,0,0,0,3.323,7.809,10.546,10.546,0,0,0,7.12,2.552A21.622,21.622,0,0,0,54.05,33.6v4.267A21.31,21.31,0,0,1,44.873,40,16.08,16.08,0,0,1,39.212,39.015ZM38.07,14.743a12.272,12.272,0,0,0-3.007,6.362h15.19a12.313,12.313,0,0,0-1.265-6.248,5.02,5.02,0,0,0-1.939-1.9,6.548,6.548,0,0,0-3.126-.695A7.942,7.942,0,0,0,38.07,14.743ZM134.87,40c-2.462,0-5.252,0-5.561-.3S129,38.485,129,36.977c0-.893,0-2.116.309-2.418a32.773,32.773,0,0,1,3.708-.907V7.349c-.413-.1-.868-.2-1.308-.3-.877-.2-1.783-.4-2.4-.6C129,6.14,129,4.917,129,4.023a11.166,11.166,0,0,1,.238-2.267,2.9,2.9,0,0,0,.07-.454h.007c.086,0,.327-.02.692-.05C131.07,1.164,133.044,1,134.87,1h11.122a23.9,23.9,0,0,1,8.627,1.535,19.8,19.8,0,0,1,6.628,4.171A18.694,18.694,0,0,1,167,20.349a20.432,20.432,0,0,1-1.279,7.151,18.888,18.888,0,0,1-3.857,6.3C158.1,37.857,152.719,40,146.3,40Zm4.943-6.651h5.252a18.384,18.384,0,0,0,6.962-1.223A11.908,11.908,0,0,0,156.5,29a13.137,13.137,0,0,0,3.089-8.653c0-6.31-5.2-12.7-15.138-12.7h-4.635ZM116.66,40c-2.383,0-5.064,0-5.362-.3s-.3-1.21-.3-2.722a5.269,5.269,0,0,1,.3-2.418,30.539,30.539,0,0,1,3.575-.907V7.349c-1.192-.3-2.681-.6-3.575-.906a5.271,5.271,0,0,1-.3-2.419,16.953,16.953,0,0,1,.3-2.721c.3,0,2.979-.3,5.362-.3h2.68c2.383,0,5.064,0,5.362.3s.3,1.21.3,2.721a5.271,5.271,0,0,1-.3,2.419,30.564,30.564,0,0,1-3.575.906v26.3l3.575.907a5.268,5.268,0,0,1,.3,2.418,16.955,16.955,0,0,1-.3,2.722c-.3,0-2.979.3-5.362.3ZM91,40c-1.846,0-3.692,0-3.692-.307C87,39.386,87,38.772,87,37.851a2.294,2.294,0,0,1,.308-1.535c.922-.307,2.154-.307,3.384-.614V12.686c-1.538,0-3.077,0-3.384-.307C87,12.379,87,11.151,87,10.23,87,9.616,87,9,87.308,9a20.3,20.3,0,0,1,6.153-.921h.308L95,12.072c2.461-2.762,4.923-3.99,7.692-3.99.615-.307,2.768.307,4.307.921,0,6.445,0,7.672-.308,7.979s-.923.307-1.846.307a2.312,2.312,0,0,1-1.539-.307c-.308-1.534-.615-2.762-.923-4.6h-1.231c-2.769,0-4.923,1.841-6.461,4.3V35.7c1.23.307,2.462.307,3.384.614a2.294,2.294,0,0,1,.308,1.535c0,.921,0,1.535-.308,1.841-.308,0-2.154.307-3.692.307ZM4.082,39C2.2,39,.314,39,.314,38.7,0,38.395,0,37.791,0,36.884a2.2,2.2,0,0,1,.314-1.512c.941-.3,1.884-.3,3.139-.6V4.233a9.594,9.594,0,0,1-3.139-.6A2.2,2.2,0,0,1,0,2.116C0,1.21,0,.6.314.3.628.3,2.512,0,4.082,0H7.535c2.2.3,4.082.3,4.4.6s.314.907.314,1.814A2.2,2.2,0,0,1,11.93,3.93a12.116,12.116,0,0,1-3.767.6V35.069H22.6c.314-1.511.314-2.721.628-3.93a14.082,14.082,0,0,1,1.57-.3c.942,0,1.57,0,1.884.3,0,.3.314,2.117.314,3.628V39Z" fill="#17465b"></path>
</svg>
