<svg xmlns="http://www.w3.org/2000/svg" width="240" height="240" baseProfile="basic" viewBox="0 0 48 48"><path fill="#ffa000" d="M40 12H22l-4-4H8c-2.2 0-4 1.8-4 4v8h40v-4c0-2.2-1.8-4-4-4"/><path fill="#ffca28" d="M40 12H8c-2.2 0-4 1.8-4 4v20c0 2.2 1.8 4 4 4h32c2.2 0 4-1.8 4-4V16c0-2.2-1.8-4-4-4"/><path fill="#78909c" d="m31.189 27.25 5.761-2.971a.63.63 0 0 0 .016-1.113L24.977 16.54a2.02 2.02 0 0 0-1.955 0l-11.988 6.625a.63.63 0 0 0 .016 1.113l5.738 2.96z"/><path fill="#37474f" d="M32 25.917C32 24.306 28.418 23 24 23s-8 1.306-8 2.917v7.16h.001q-.002.005-.001.006c2.979 0 4.893-.752 8 1.917 3.851-2.892 8-1.917 8-1.917l-.001-.006H32z"/></svg>