<svg xmlns="http://www.w3.org/2000/svg" viewBox="0 0 48 48" width="240" height="240"><path fill="#8BC34A" d="M40 42H8V20.9L24 9.2l16 11.3V42z"/><path fill="#2E7D32" d="M42 25 24 13 6 25v-7L24 6l18 12v7z"/><path fill="#FFF" d="M22.4 26.3c.1.2.2.4.4.6.2.2.4.4.7.5.3.2.7.3 1.1.5.7.3 1.4.6 2 .9.6.3 1.1.7 1.5 1.1.4.4.8.9 1 1.4.2.5.4 1.2.4 1.9s-.1 1.3-.3 1.8c-.2.5-.5 1-.9 1.4-.4.4-.9.7-1.4.9-.6.2-1.2.4-1.8.5V40h-1.8v-2.2c-.6-.1-1.2-.2-1.8-.4-.6-.2-1.1-.5-1.5-1-.5-.4-.8-1-1.1-1.6-.3-.6-.4-1.4-.4-2.3h3.3c0 .5.1 1 .2 1.3.1.4.3.6.6.9.2.2.5.4.8.4.3.1.6.1.9.1.4 0 .7 0 .9-.1.3-.1.5-.2.7-.4.2-.2.3-.4.4-.6.1-.2.1-.5.1-.8 0-.3 0-.6-.1-.8-.1-.2-.2-.5-.4-.7-.2-.2-.4-.4-.7-.5-.3-.2-.7-.3-1.1-.5-.7-.3-1.4-.6-2-.9-.6-.3-1.1-.7-1.5-1.1-.4-.4-.8-.9-1-1.4-.2-.5-.4-1.2-.4-1.9 0-.6.1-1.2.3-1.7.2-.5.5-1 .9-1.4.4-.4.9-.7 1.4-1 .5-.3 1.2-.4 1.8-.5v-2.4h1.8V21c.6.1 1.2.3 1.8.6.5.3 1 .6 1.3 1.1.4.4.7 1 .9 1.6.2.6.3 1.3.3 2h-3.3c0-.9-.2-1.6-.6-2-.4-.4-.9-.7-1.5-.7-.3 0-.6.1-.9.2-.2.1-.4.2-.6.4-.2.2-.3.4-.3.6-.1.2-.1.5-.1.8-.2.2-.1.5 0 .7"/></svg>